<svg width="26" height="26" viewBox="0 0 26 26" fill="none" xmlns="http://www.w3.org/2000/svg">
<path d="M21.3035 19.0517C21.0036 19.7875 20.6332 20.4892 20.1979 21.1458C19.6164 22.0201 19.1388 22.6243 18.7728 22.9606C18.2043 23.51 17.5936 23.7927 16.9406 23.8087C16.4728 23.8087 15.9076 23.6685 15.2492 23.3835C14.5887 23.0996 13.9823 22.9606 13.4268 22.9606C12.8453 22.9606 12.2215 23.0996 11.5534 23.3835C10.8864 23.6685 10.3471 23.8178 9.93454 23.8315C9.30972 23.86 8.68491 23.5704 8.06227 22.9606C7.66486 22.5958 7.16783 21.9688 6.57117 21.0819C5.93229 20.1369 5.4071 19.0369 4.99561 17.7863C4.55489 16.4332 4.33398 15.1246 4.33398 13.8569C4.33398 12.4058 4.63177 11.153 5.22843 10.1042C5.67971 9.28057 6.32487 8.59314 7.10177 8.10817C7.86786 7.62445 8.7424 7.36399 9.63567 7.35352C10.1338 7.35352 10.7867 7.51539 11.5956 7.83458C12.4045 8.15377 12.9243 8.31564 13.1506 8.31564C13.3217 8.31564 13.8967 8.12527 14.8756 7.74794C15.7993 7.39798 16.579 7.25321 17.2178 7.3102C18.9504 7.45726 20.2509 8.17542 21.1161 9.47041C19.5677 10.4587 18.8021 11.8415 18.8172 13.6164C18.8302 14.9992 19.3078 16.1494 20.2434 17.0625C20.657 17.4792 21.1396 17.8126 21.6673 18.0463C21.5525 18.3962 21.4313 18.7302 21.3035 19.0517ZM17.3326 2.60107C17.3326 3.68402 16.9558 4.6963 16.2075 5.6322C15.3023 6.74479 14.2086 7.38886 13.0229 7.2874C13.0073 7.15122 12.9997 7.01418 13.0001 6.87702C13.0001 5.83625 13.4289 4.72366 14.1945 3.81284C14.5757 3.3523 15.0608 2.96813 15.6488 2.66263C16.2357 2.36168 16.7901 2.19525 17.3121 2.16675C17.3261 2.31266 17.3326 2.45744 17.3326 2.60107Z" fill="#383A3A"/>
</svg>
