<svg width="26" height="26" viewBox="0 0 26 26" fill="none" xmlns="http://www.w3.org/2000/svg">
<path d="M23.622 10.8784H22.7493V10.8334H12.9993V15.1667H19.1218C18.2286 17.6893 15.8285 19.5001 12.9993 19.5001C9.40972 19.5001 6.49935 16.5897 6.49935 13.0001C6.49935 9.41046 9.40972 6.50008 12.9993 6.50008C14.6563 6.50008 16.1638 7.12516 17.3116 8.14621L20.3758 5.082C18.4409 3.27879 15.8528 2.16675 12.9993 2.16675C7.01664 2.16675 2.16602 7.01737 2.16602 13.0001C2.16602 18.9828 7.01664 23.8334 12.9993 23.8334C18.9821 23.8334 23.8327 18.9828 23.8327 13.0001C23.8327 12.2737 23.7579 11.5647 23.622 10.8784Z" fill="#FFC107"/>
<path d="M3.41602 7.95771L6.97531 10.568C7.93839 8.18358 10.2708 6.50008 13.0003 6.50008C14.6572 6.50008 16.1647 7.12516 17.3125 8.14621L20.3767 5.082C18.4418 3.27879 15.8538 2.16675 13.0003 2.16675C8.83918 2.16675 5.2306 4.51596 3.41602 7.95771Z" fill="#FF3D00"/>
<path d="M12.9998 23.8332C15.7981 23.8332 18.3407 22.7623 20.263 21.0209L16.9101 18.1836C15.7859 19.0386 14.4122 19.501 12.9998 19.4999C10.1821 19.4999 7.78955 17.7032 6.88822 15.1958L3.35547 17.9177C5.14839 21.426 8.78947 23.8332 12.9998 23.8332Z" fill="#4CAF50"/>
<path d="M23.6226 10.8785H22.75V10.8335H13V15.1668H19.1225C18.6952 16.3674 17.9256 17.4165 16.9087 18.1845L16.9103 18.1834L20.2632 21.0206C20.026 21.2362 23.8333 18.4168 23.8333 13.0002C23.8333 12.2738 23.7586 11.5647 23.6226 10.8785Z" fill="#1976D2"/>
</svg>
