<?xml version="1.0" encoding="UTF-8"?>
<svg version="1.1" xmlns="http://www.w3.org/2000/svg" width="68" height="69">
<path d="M0 0 C22.44 0 44.88 0 68 0 C68 22.77 68 45.54 68 69 C45.56 69 23.12 69 0 69 C0 46.23 0 23.46 0 0 Z " fill="#FCE800" transform="translate(0,0)"/>
<path d="M0 0 C4.92087848 3.58434358 9.02485829 7.07457486 11 13 C11.61131674 18.50185063 10.84837024 23.25872549 8 28 C3.33293462 33.29313513 -1.93835049 37.713938 -9 39 C-11.31141442 39.12597756 -13.6241939 39.228109 -15.9375 39.3125 C-22.06043699 39.60187618 -25.56479247 40.91736241 -30.328125 44.72265625 C-32 46 -32 46 -34 46 C-33.82339844 45.3709375 -33.64679687 44.741875 -33.46484375 44.09375 C-32.87468395 41.1910381 -32.60739651 38.94663697 -33 36 C-35.03897633 33.59148638 -37.26830336 31.86085262 -39.76171875 29.93359375 C-44.06873022 26.21287704 -44.72465019 21.9274487 -45.5 16.5 C-44.5184222 9.6289554 -40.3018688 4.47283301 -34.921875 0.25390625 C-24.97847281 -6.23355737 -9.92290221 -6.621741 0 0 Z " fill="#40221D" transform="translate(51,14)"/>
<path d="M0 0 C0.99 0 1.98 0 3 0 C3.67528223 1.57967807 4.33989694 3.16391903 5 4.75 C5.37125 5.63171875 5.7425 6.5134375 6.125 7.421875 C7 10 7 10 7 14 C6.01 13.67 5.02 13.34 4 13 C4 12.34 4 11.68 4 11 C2.02 11 0.04 11 -2 11 C-2.33 11.99 -2.66 12.98 -3 14 C-3.66 13.67 -4.32 13.34 -5 13 C-4.54803755 11.39402675 -4.08817673 9.79027492 -3.625 8.1875 C-3.36976562 7.29417969 -3.11453125 6.40085937 -2.8515625 5.48046875 C-2 3 -2 3 0 0 Z " fill="#D6C006" transform="translate(27,25)"/>
<path d="M0 0 C0.99 0 1.98 0 3 0 C3.33 1.32 3.66 2.64 4 4 C5.65 2.68 7.3 1.36 9 0 C9 3.10551666 8.4606285 4.35261084 7 7 C7.495 7.598125 7.99 8.19625 8.5 8.8125 C10 11 10 11 10 14 C6.83884224 12.63016497 6.0072908 12.0109362 4 9 C3.34 10.65 2.68 12.3 2 14 C1.34 13.67 0.68 13.34 0 13 C0 8.71 0 4.42 0 0 Z " fill="#F3DF01" transform="translate(44,25)"/>
<path d="M0 0 C1.485 0.99 1.485 0.99 3 2 C5.89240518 2.29136377 5.89240518 2.29136377 9.21557617 2.22705078 C10.4966777 2.22689972 11.77777924 2.22674866 13.09770203 2.22659302 C14.49612584 2.21637973 15.89454808 2.20594774 17.29296875 2.1953125 C18.72357485 2.19158178 20.15418352 2.18873509 21.58479309 2.18673706 C25.34792144 2.17910522 29.11089511 2.15946069 32.8739624 2.1373291 C36.71478178 2.11686094 40.55562617 2.10773327 44.39648438 2.09765625 C51.93106006 2.07621429 59.46550834 2.04208387 67 2 C67.33 1.34 67.66 0.68 68 0 C68 1.32 68 2.64 68 4 C45.56 4 23.12 4 0 4 C0 2.68 0 1.36 0 0 Z " fill="#0F0E00" transform="translate(0,65)"/>
<path d="M0 0 C3.3 0 6.6 0 10 0 C10 0.99 10 1.98 10 3 C8.68 3 7.36 3 6 3 C6 6.63 6 10.26 6 14 C5.01 13.67 4.02 13.34 3 13 C3 9.7 3 6.4 3 3 C1.68 2.67 0.36 2.34 -1 2 C-0.67 1.34 -0.34 0.68 0 0 Z " fill="#E9D403" transform="translate(14,25)"/>
<path d="M0 0 C0.66 0 1.32 0 2 0 C2 3.63 2 7.26 2 11 C3.65 11 5.3 11 7 11 C7 11.99 7 12.98 7 14 C4.66705225 14.04241723 2.33297433 14.04092937 0 14 C-1 13 -1 13 -1.1328125 10.3125 C-1.13023438 9.219375 -1.12765625 8.12625 -1.125 7 C-1.12757812 5.906875 -1.13015625 4.81375 -1.1328125 3.6875 C-1 1 -1 1 0 0 Z " fill="#E4CF03" transform="translate(36,25)"/>
<path d="M0 0 C0.97791242 2.64036353 1.03638105 3.87266632 0.25 6.625 C-1 9 -1 9 -4 11 C-4 7.7 -4 4.4 -4 1 C-2.68 0.67 -1.36 0.34 0 0 Z " fill="#4A2D1B" transform="translate(24,27)"/>
<path d="M0 0 C0.99 0 1.98 0 3 0 C2.43628586 3.26954202 1.50037734 4.82575883 -1 7 C-1.625 5.1875 -1.625 5.1875 -2 3 C-1.34 2.01 -0.68 1.02 0 0 Z " fill="#F0DC02" transform="translate(27,25)"/>
</svg>
