<svg width="357" height="357" viewBox="0 0 357 357" fill="none" xmlns="http://www.w3.org/2000/svg">
<rect width="357" height="357" fill="white"/>
<path d="M139.52 128.49L214.337 65.1776C214.997 64.6185 214.602 63.5393 213.736 63.5393H195.835C195.052 63.5393 194.62 62.6307 195.114 62.0237L221.501 29.602C222.223 28.7151 221.016 27.5612 220.162 28.3217L173.683 69.7209C173.045 70.2888 173.447 71.3438 174.301 71.3438H183.333C184.124 71.3438 184.553 72.2681 184.043 72.8722L138.21 127.182C137.475 128.052 138.65 129.226 139.52 128.49Z" fill="#F03F94"/>
<path d="M171.826 180.971L270.285 187.971C271.608 188.065 272.382 186.511 271.511 185.512L266.353 179.596C265.548 178.672 266.142 177.227 267.364 177.136L312.667 173.773C314.464 173.64 314.519 171.022 312.728 170.814L234.567 161.72C233.348 161.578 232.492 162.891 233.113 163.949L237.001 170.575C237.556 171.52 236.932 172.72 235.839 172.809L171.812 178.006C169.981 178.155 169.994 180.84 171.826 180.971Z" fill="#F03F94"/>
<mask id="mask0_625_2027" style="mask-type:alpha" maskUnits="userSpaceOnUse" x="54" y="235" width="94" height="113">
<path d="M129.494 304.644L111.209 341.314C109.359 343.68 106.766 345.383 103.815 345.944C86.5582 349.229 72.756 346.944 61.581 345.08C57.8977 344.466 54.9847 341.574 54.4023 337.886L88.1481 290.429L86.2899 283.182L83.5954 269.617L86.2899 262.741L99.6691 246.668L108.682 262.741L132.002 235.146L136.555 236.819L134.697 243.973L141.665 246.668V255.401L147.89 265.25L146.404 272.404L147.89 280.859V285.598L141.665 295.725L129.494 304.644Z" fill="white"/>
</mask>
<g mask="url(#mask0_625_2027)">
<rect x="35.1777" y="230.038" width="402.854" height="461.239" fill="white"/>
<path d="M53.8644 340.88L94.2809 294.517C96.0463 292.907 98.7965 287.456 95.6746 278.536C91.7723 267.387 97.0683 257.353 103.479 252.8C101.77 247.151 100.413 246.668 99.9486 247.132L84.5252 263.671L83.3174 271.103L84.5252 280.488L88.4275 289.128L52.4707 340.88H53.8644Z" fill="#FAC3DE"/>
<path d="M118.664 274.558C118.362 273.112 118.93 271.674 119.789 270.473L129.492 256.92C129.988 255.65 131.952 249.672 133.736 249.003C134.797 254.553 126.521 272.869 122.526 276.492C120.244 278.562 119.092 276.603 118.664 274.558Z" fill="#FAC3DE"/>
<path d="M135.627 272.311C138.228 269.264 141.282 258.987 141.653 255.859C141.963 254.868 141.146 255.028 142.633 259.042C143.283 273.908 131.443 285.111 129.492 287.527C127.541 289.943 126.473 292.225 123.779 291.853C121.623 291.556 120.677 290.75 125.003 284.67C127.295 281.45 133.025 275.359 135.627 272.311Z" fill="#FAC3DE"/>
<path d="M145.653 271.693L142.633 278.536L133.736 288.343L132.206 290.688C131.504 291.763 132.612 293.099 133.798 292.609L135.627 291.853C138.234 290.629 143.89 284.883 145.653 271.693Z" fill="#FAC3DE"/>
</g>
<mask id="mask1_625_2027" style="mask-type:alpha" maskUnits="userSpaceOnUse" x="43" y="133" width="131" height="137">
<path d="M72.6034 267.204L77.6637 260.675L87.458 260.92L99.3743 247.208L109.495 262.552L127.728 239.792L117.973 227.063L139.939 207.051L147.203 204.032L153.372 201.512L166.71 200.848L171.954 197.517L173.441 192.407L172.586 185.423L165.543 171.966L147.426 153.941L128.936 142.234L115 135.638L105.151 133.687H94.559L88.3339 137.96V147.809L91.3071 153.941L72.1673 188.969L46.2406 226.558L44.9346 233.251L45.5876 239.372L43.0859 248.269L46.2406 260.267L56.2796 269.408L64.0334 269.898L72.6034 267.204Z" fill="#A1B3B8"/>
</mask>
<g mask="url(#mask1_625_2027)">
<rect x="-26.5586" y="86.2495" width="615.228" height="614.498" fill="#F7CB98"/>
<path fill-rule="evenodd" clip-rule="evenodd" d="M117.972 137.682C109.703 140.531 96.9744 149.017 112.212 160.166C116.981 158.432 127.672 156.375 132.281 162.024C132.849 162.721 133.403 163.381 133.936 164.017C138.809 169.828 141.967 173.594 138.785 184.23C140.829 185.624 151.049 191.849 153.372 185.903C153.449 185.704 153.53 185.501 153.612 185.293L153.613 185.291C155.994 179.27 159.953 169.256 143.43 152.733L146.403 154.034C151.916 157.905 163.889 167.506 167.68 174.939C172.419 184.23 174.834 192.499 172.14 196.03C169.445 199.561 162.02 202.859 149.569 198.956C143.458 197.041 137.389 194.8 132.756 192.499L134.307 193.22L146.868 198.167L155.137 200.583L145.939 203.277L133.21 213.405L118.263 228.182L126.985 240.163L109.982 263.112L105.894 257.166C110.168 253.666 117.434 244.4 112.305 235.332C112.92 234.213 113.481 233.244 113.99 232.406L108.681 237.655L86.7541 261.44L73.9066 260.607L76.0693 261.068L72.7245 267.107C69.2248 269.647 62.3555 273.779 62.8758 269.988C63.3285 266.69 60.2794 263.086 56.5241 261.068C54.8841 260.187 53.648 259.778 52.5248 258.88C50.0457 256.896 51.532 251.553 52.9329 248.841C53.3696 247.995 52.7711 249.105 53.0961 248.269C53.4212 247.433 60.1153 253.003 60.1153 253.003C65.6739 253.157 76.4264 253.165 80.9007 248.618C84.8715 244.583 104.464 223.082 119.24 207.522C122.605 203.977 121.835 198.139 117.991 195.12C104.946 184.874 89.9234 167.537 90.8422 156.45L92.7089 155.205L89.2627 150.318L88.0549 140.376L90.0989 135.638L95.5807 133.129L103.014 133.222L117.043 136.288L117.972 137.682Z" fill="#F1A54C"/>
</g>
<path d="M112.17 161.432V161.432C127.245 153.178 144.498 168.019 138.674 184.189V184.189" stroke="#651A3E" stroke-width="2.6775" stroke-linecap="round" stroke-linejoin="round"/>
<path d="M116.76 228.599L137.712 208.819C139.29 207.329 141.151 206.173 143.185 205.418L155.284 200.93" stroke="#651A3E" stroke-width="2.6775" stroke-linecap="round" stroke-linejoin="round"/>
<path d="M56.6073 212.275C56.0045 216.629 57.2783 224.982 64.8508 232.127" stroke="#651A3E" stroke-width="2.6775" stroke-linecap="round" stroke-linejoin="round"/>
<path d="M138.855 266.35L133.92 274.94L126.518 282.343" stroke="#651A3E" stroke-width="2.6775" stroke-linecap="round" stroke-linejoin="round"/>
<path d="M54.3184 337.453L85.4144 294.384C88.0416 290.745 88.3559 285.973 86.8885 281.731C84.5374 274.935 82.9389 266.381 86.5797 262.054C88.9621 259.223 93.9792 253.59 99.4326 247.534M127.798 239.846C126.274 237.774 122.149 232.224 120.395 229.884C118.64 227.545 116.922 228.3 116.282 228.97C112.166 233.472 105.527 240.767 99.4326 247.534M105.681 267.355L109.942 262.054M129.077 259.038C130.481 255.438 133.268 248.102 134.822 243.41M134.822 243.41C135.122 242.504 135.376 241.697 135.566 241.034C137.028 235.916 135.383 236.282 134.104 235.185C133.08 234.308 131.971 234.819 131.545 235.185L109.942 262.054M134.822 243.41L137.998 244.553C139.594 245.127 140.902 246.14 141.071 247.827C141.188 249.003 141.261 250.699 141.232 253.098C141.226 253.611 141.221 254.098 141.216 254.56M141.232 262.054C141.204 261.663 141.166 259.625 141.216 254.56M141.216 254.56L145.477 259.927C147.368 262.31 147.809 265.533 146.628 268.336L142.42 278.322L134.104 287.735M109.942 262.054L99.4326 247.534" stroke="#651A3E" stroke-width="2.6775" stroke-linecap="round" stroke-linejoin="round"/>
<path d="M146.075 269.823L148.119 278.495C148.738 281.122 148.227 283.888 146.709 286.12L142.073 292.937C141.575 293.67 140.978 294.33 140.299 294.9L132.039 301.83C131.048 302.661 130.235 303.683 129.648 304.835L111.346 340.743" stroke="#651A3E" stroke-width="2.6775" stroke-linecap="round" stroke-linejoin="round"/>
<path d="M125.604 261.597L119.938 269.914" stroke="#651A3E" stroke-width="2.6775" stroke-linecap="round" stroke-linejoin="round"/>
<path d="M87.6762 260.592L75.5381 259.9C71.942 259.696 68.4737 258.495 65.5207 256.432L50.6625 246.055C48.2992 244.405 46.5838 241.983 45.8102 239.207V239.207M74.3179 185.586L91.2129 155.387M45.8102 239.207V239.207C44.3137 233.834 45.3404 228.073 48.6007 223.549L49.843 221.825L65.2582 199.298M45.8102 239.207L44.3337 243.592C42.0417 250.398 43.6924 257.914 48.6256 263.134L50.5497 265.169C53.2723 268.05 56.9543 269.836 60.9021 270.19V270.19C66.5717 270.7 72.0942 268.204 75.4586 263.612L78.0723 260.045" stroke="#651A3E" stroke-width="2.6775" stroke-linecap="round" stroke-linejoin="round"/>
<path d="M63.7879 201.501C62.9004 206.609 64.2361 215.988 72.033 224.11" stroke="#651A3E" stroke-width="2.6775" stroke-linecap="round" stroke-linejoin="round"/>
<path d="M142.526 151.075C154.029 159.402 162.996 168.834 168.215 177.304C170.826 181.542 172.462 185.481 173.046 188.876C173.628 192.266 173.147 195.003 171.686 197.022C170.224 199.04 167.775 200.352 164.373 200.857C160.965 201.363 156.712 201.038 151.871 199.881C142.195 197.569 130.435 191.996 118.932 183.669C107.429 175.342 98.4616 165.91 93.2432 157.44C90.6323 153.203 88.9965 149.264 88.4128 145.869C87.8303 142.479 88.3101 139.742 89.7714 137.723C91.9073 134.773 96.1908 133.33 102.328 133.719C108.41 134.105 115.971 136.284 124.114 140.112C130.09 142.921 136.349 146.603 142.526 151.075Z" stroke="#651A3E" stroke-width="2.6775" stroke-linecap="round" stroke-linejoin="round"/>
<path d="M109.25 134.575C104.101 133.63 94.3285 136.007 96.4488 147.632" stroke="#651A3E" stroke-width="2.6775" stroke-linecap="round" stroke-linejoin="round"/>
<path fill-rule="evenodd" clip-rule="evenodd" d="M122.242 125.812C123.204 126.168 123.696 127.237 123.34 128.199L116.743 146.038C116.387 147.001 115.318 147.493 114.356 147.137C113.393 146.781 112.901 145.712 113.257 144.749L119.854 126.91C120.21 125.948 121.279 125.456 122.242 125.812Z" fill="#D9811C"/>
<path fill-rule="evenodd" clip-rule="evenodd" d="M153.884 145.546C154.724 146.137 154.926 147.296 154.335 148.135L144.858 161.608C144.268 162.447 143.109 162.649 142.269 162.058C141.43 161.468 141.228 160.309 141.818 159.469L151.295 145.997C151.886 145.158 153.045 144.956 153.884 145.546Z" fill="#D9811C"/>
<path fill-rule="evenodd" clip-rule="evenodd" d="M154.473 192.058C154.769 191.075 155.805 190.518 156.788 190.813L177.507 197.038C178.49 197.334 179.047 198.37 178.752 199.353C178.457 200.336 177.421 200.893 176.438 200.598L155.718 194.373C154.736 194.077 154.178 193.041 154.473 192.058Z" fill="#D9811C"/>
<path fill-rule="evenodd" clip-rule="evenodd" d="M183.867 199.575C184.219 198.611 185.285 198.114 186.25 198.466L315.211 245.479C316.175 245.831 316.672 246.897 316.32 247.861C315.969 248.826 314.902 249.322 313.938 248.971L184.977 201.957C184.012 201.606 183.516 200.539 183.867 199.575Z" fill="#D9811C"/>
<path fill-rule="evenodd" clip-rule="evenodd" d="M182.997 209.941C183.525 209.061 184.666 208.775 185.546 209.303L239.807 241.822C240.687 242.349 240.973 243.491 240.445 244.371C239.918 245.251 238.777 245.537 237.896 245.009L183.636 212.49C182.756 211.963 182.47 210.822 182.997 209.941Z" fill="#D9811C"/>
<path fill-rule="evenodd" clip-rule="evenodd" d="M284.172 68.566C284.73 69.4267 284.486 70.5776 283.625 71.1364L173.432 142.678C172.571 143.237 171.42 142.992 170.861 142.132C170.302 141.271 170.547 140.12 171.408 139.561L281.601 68.0193C282.462 67.4604 283.613 67.7052 284.172 68.566Z" fill="#D9811C"/>
<path fill-rule="evenodd" clip-rule="evenodd" d="M112.662 9.37275C113.688 9.41572 114.484 10.2818 114.441 11.3071L110.26 111.094C110.217 112.12 109.351 112.916 108.326 112.873C107.3 112.83 106.504 111.964 106.547 110.939L110.728 11.1516C110.771 10.1262 111.637 9.32979 112.662 9.37275ZM93.0731 55.0837C94.0994 55.0837 94.9314 55.9156 94.9314 56.9419V73.0156C94.9314 74.0419 94.0994 74.8738 93.0731 74.8738C92.0469 74.8738 91.2149 74.0419 91.2149 73.0156V56.9419C91.2149 55.9156 92.0469 55.0837 93.0731 55.0837ZM93.0731 91.8767C94.0994 91.8767 94.9314 92.7086 94.9314 93.7349V106.557C94.9314 107.583 94.0994 108.415 93.0731 108.415C92.0469 108.415 91.2149 107.583 91.2149 106.557V93.7349C91.2149 92.7086 92.0469 91.8767 93.0731 91.8767ZM199.552 107.56C200.229 108.33 200.154 109.504 199.383 110.182L167.05 138.613C166.279 139.291 165.105 139.215 164.427 138.445C163.75 137.674 163.825 136.5 164.596 135.822L196.929 107.391C197.7 106.713 198.874 106.789 199.552 107.56ZM80.2723 109.268C81.2379 108.92 82.3025 109.421 82.6501 110.387L90.1759 131.292C90.5236 132.258 90.0226 133.322 89.057 133.67C88.0914 134.018 87.0268 133.517 86.6792 132.551L79.1533 111.646C78.8057 110.68 79.3067 109.616 80.2723 109.268Z" fill="#D9811C"/>
<path fill-rule="evenodd" clip-rule="evenodd" d="M175.782 119.097C176.554 119.773 176.63 120.947 175.954 121.719L171.308 127.015C170.631 127.786 169.457 127.863 168.686 127.186C167.914 126.51 167.837 125.336 168.514 124.564L173.16 119.268C173.837 118.497 175.011 118.42 175.782 119.097Z" fill="#D9811C"/>
<path d="M108.433 63.3109L106.318 65.5071C105.64 66.2111 105.555 67.2966 106.116 68.0972L135.205 109.647C136.01 110.797 137.74 110.711 138.426 109.486C138.763 108.886 138.75 108.152 138.392 107.564L111.651 63.6654C110.954 62.5209 109.363 62.3456 108.433 63.3109Z" fill="#651A3E"/>
<path d="M108.217 87.3237C107.088 84.2191 104.541 84.0361 101.938 84.9685C97.8684 86.4259 96.0303 91.9665 99.5983 94.4062C101.057 95.4037 102.842 95.9311 104.779 96.0574C109.053 96.3361 110.819 94.4779 108.217 87.3237Z" fill="#651A3E"/>
<path d="M141.202 79.7817C143.866 80.5242 145.839 82.1447 144.968 85.3312C142.96 92.674 140.445 93.1713 137.117 90.4753C135.609 89.2531 134.456 87.7918 133.841 86.1348C132.338 82.0824 137.038 78.621 141.202 79.7817Z" fill="#651A3E"/>
<path d="M211.722 113.339C212.445 109.983 209.891 108.495 207.257 107.941C205.153 107.498 202.932 108.161 201.621 109.865C200.664 111.109 199.714 112.868 199.179 115.198C198.763 117.011 199.462 118.448 200.649 119.555C203.976 122.655 209.281 120.563 210.86 116.299C211.196 115.394 211.493 114.405 211.722 113.339Z" fill="#651A3E"/>
<path d="M217.391 139.419C217.391 137.491 219.057 135.984 221.211 134.867C225.557 132.614 229.664 135.732 226.299 139.287C225.882 139.728 225.452 140.147 225.033 140.531C224.121 141.369 223.058 142.058 221.849 142.328C219.788 142.788 217.391 142.526 217.391 139.419Z" fill="#651A3E"/>
<path d="M200.675 95.4264L197.04 47.1473C196.874 44.9443 198.118 42.8768 200.141 41.9906L208.327 38.4062C209.976 37.6841 211.881 37.8657 213.364 38.8864L215.634 40.4491C217.178 41.512 218.031 43.3236 217.867 45.1911L213.441 95.4919C213.204 98.1784 210.954 100.239 208.258 100.239H205.863C203.141 100.239 200.879 98.1408 200.675 95.4264Z" fill="#651A3E"/>
<path d="M222.783 121.926L243.215 76.0171C244.154 73.9075 246.371 72.669 248.659 72.9757L255.106 73.8397C258.781 74.3323 260.776 78.4013 258.915 81.6083L234.542 123.606C234.381 123.884 234.246 124.177 234.138 124.48L232.926 127.899C232.19 129.976 230.225 131.364 228.022 131.364H226.893C224.108 131.364 221.849 129.106 221.849 126.321C221.849 124.807 222.168 123.309 222.783 121.926Z" fill="#651A3E"/>
<path d="M210.79 168.067C211.79 166.947 213.414 166.63 214.761 167.292L234.472 176.978C235.617 177.54 236.342 178.705 236.342 179.98V182.018L240.59 180.874C241.53 180.621 242.533 180.79 243.338 181.336L259.908 192.581C261.287 193.516 261.79 195.351 260.993 196.869C259.708 199.317 257.465 203.297 255.421 205.955C254.793 206.771 253.87 207.172 252.995 207.238C249.906 207.469 249.08 208.539 248.812 209.254C248.454 210.212 248.666 211.613 249.29 213.005C249.85 214.255 249.712 215.901 248.538 216.998L238.914 225.991C237.803 227.03 236.131 227.188 234.845 226.376L218.111 215.812C217.141 215.199 216.552 214.131 216.552 212.983V209.768L214.08 210.481C213.168 210.743 212.187 210.606 211.382 210.104L193.863 199.165C192.578 198.363 191.998 196.802 192.431 195.361C192.563 194.919 192.681 194.526 192.786 194.173C193.181 192.846 193.405 192.096 193.626 191.524C193.87 190.898 194.137 190.421 194.532 189.716C194.633 189.536 194.742 189.341 194.862 189.125C195.496 187.977 196.718 187.333 197.965 187.372C202.758 187.518 203.996 186.068 204.354 185.091C204.844 183.756 204.392 181.714 203.375 179.762C202.751 178.564 202.823 176.998 203.827 175.872L210.79 168.067Z" fill="#684AE2"/>
<path fill-rule="evenodd" clip-rule="evenodd" d="M208.303 194.747L211.83 196.757C212.61 197.191 213.412 197.402 214.235 197.392C215.062 197.376 215.84 197.165 216.568 196.759C217.293 196.344 217.873 195.759 218.309 195.005L221.561 189.372C221.977 188.65 222.178 187.889 222.164 187.089C222.159 186.286 221.961 185.537 221.57 184.843C221.185 184.152 220.623 183.606 219.884 183.205L216.204 181.106C216.153 181.077 216.112 181.087 216.083 181.138L208.262 194.595C208.226 194.659 208.239 194.71 208.303 194.747ZM217.148 184.781L218.529 185.552C218.958 185.783 219.235 186.143 219.361 186.633C219.491 187.117 219.436 187.566 219.196 187.981L215.933 193.633C215.66 194.106 215.26 194.416 214.732 194.563C214.204 194.709 213.698 194.643 213.213 194.362L211.996 193.66L217.148 184.781Z" fill="white"/>
<path d="M217.557 200.09L219.78 201.373C219.831 201.402 219.875 201.385 219.912 201.321L227.675 187.831C227.704 187.78 227.694 187.74 227.642 187.71L225.439 186.438C225.388 186.408 225.348 186.419 225.318 186.47L217.517 199.938C217.48 200.002 217.493 200.053 217.557 200.09Z" fill="white"/>
<path d="M224.804 204.529C224.108 204.127 223.569 203.578 223.188 202.881C222.814 202.188 222.622 201.443 222.614 200.646C222.615 199.846 222.823 199.089 223.236 198.374L223.756 197.473C223.796 197.403 223.849 197.386 223.912 197.423L226.116 198.695C226.167 198.725 226.172 198.775 226.132 198.845L225.612 199.745C225.365 200.173 225.294 200.627 225.401 201.106C225.512 201.578 225.768 201.93 226.17 202.163C226.579 202.399 227.018 202.443 227.486 202.296C227.957 202.143 228.313 201.859 228.553 201.443C228.829 200.964 228.758 200.365 228.338 199.646C228.273 199.524 228.183 199.369 228.069 199.184C227.965 198.996 227.836 198.777 227.682 198.527C227.529 198.276 227.38 198.033 227.235 197.796C227.095 197.553 226.957 197.32 226.821 197.097C226.349 196.263 226.12 195.428 226.134 194.593C226.158 193.755 226.398 192.94 226.856 192.148C227.276 191.42 227.835 190.865 228.532 190.484C229.225 190.11 229.957 189.919 230.727 189.912C231.507 189.903 232.236 190.094 232.913 190.485C233.609 190.887 234.148 191.428 234.53 192.108C234.908 192.795 235.102 193.529 235.112 194.309C235.127 195.093 234.927 195.846 234.51 196.567L233.581 198.177C233.551 198.228 233.511 198.239 233.46 198.209L231.257 196.937C231.206 196.908 231.195 196.867 231.224 196.816L232.134 195.196C232.4 194.736 232.472 194.279 232.35 193.826C232.229 193.373 231.97 193.032 231.574 192.803C231.172 192.571 230.738 192.525 230.274 192.666C229.81 192.806 229.456 193.087 229.212 193.509C228.965 193.937 228.848 194.346 228.861 194.737C228.88 195.131 229.057 195.599 229.391 196.141C229.428 196.196 229.509 196.328 229.635 196.537C229.761 196.747 229.899 196.98 230.049 197.236C230.209 197.49 230.352 197.722 230.478 197.931C230.608 198.134 230.687 198.256 230.714 198.297C231.155 199.037 231.411 199.781 231.482 200.529C231.559 201.28 231.375 202.042 230.929 202.815C230.497 203.562 229.938 204.133 229.25 204.528C228.556 204.919 227.818 205.12 227.038 205.129C226.258 205.138 225.513 204.938 224.804 204.529Z" fill="white"/>
<path d="M231.992 207.964C232.373 208.661 232.919 209.214 233.627 209.623C234.349 210.04 235.101 210.235 235.882 210.209C236.667 210.177 237.408 209.962 238.106 209.565C238.801 209.157 239.361 208.586 239.785 207.852L240.311 206.942C240.34 206.891 240.329 206.85 240.278 206.821L238.056 205.538C238.004 205.508 237.964 205.519 237.935 205.57L237.409 206.48C237.17 206.895 236.811 207.191 236.335 207.367C235.862 207.537 235.415 207.5 234.994 207.257C234.591 207.025 234.336 206.677 234.228 206.215C234.124 205.746 234.211 205.272 234.487 204.793L238.022 198.671C238.265 198.25 238.603 197.951 239.037 197.776C239.47 197.6 239.92 197.647 240.386 197.916C240.808 198.16 241.069 198.519 241.169 198.994C241.27 199.469 241.194 199.924 240.944 200.358L240.424 201.259C240.394 201.31 240.405 201.35 240.456 201.38L242.659 202.652C242.711 202.681 242.751 202.671 242.78 202.62L243.3 201.719C243.724 200.985 243.935 200.221 243.933 199.428C243.942 198.632 243.76 197.892 243.388 197.209C243.022 196.53 242.475 195.98 241.747 195.56C241.032 195.147 240.275 194.953 239.477 194.977C238.69 194.999 237.958 195.212 237.283 195.614C236.612 196.01 236.066 196.572 235.646 197.3L232.092 203.41C231.665 204.151 231.445 204.923 231.433 205.725C231.431 206.524 231.618 207.271 231.992 207.964Z" fill="white"/>
</svg>
